PathFileType	4	(X/Y/Z)	..\data\2014014\dynamic\2014014_C4_04.trc
DataRate	CameraRate	NumFrames	NumMarkers	Units	OrigDataRate	OrigDataStartFrame	OrigNumFrames
100.000000	100.000000	4	52	mm	100.000000	111	178
Frame#	Time	L_IAS			L_IPS			R_IPS			R_IAS			L_FTC			L_FLE			L_FME			L_FAX			L_TTC			L_FAL			L_TAM			L_FCC			L_FM1			L_FM2			L_FM5			R_FTC			R_FLE			R_FME			R_FAX			R_TTC			R_FAL			R_TAM			R_FCC			R_FM1			R_FM2			R_FM5			CV7			TV10			SXS			SJN			L_SIA			L_SRS			L_SAA			L_SAE			L_HLE			L_HME			L_UOA			L_RSP			L_UHE			L_HM2			L_HM5			R_SIA			R_SRS			R_SAA			R_SAE			R_HLE			R_HME			R_UOA			R_RSP			R_UHE			R_HM2			R_HM5			
		X1	Y1	Z1	X2	Y2	Z2	X3	Y3	Z3	X4	Y4	Z4	X5	Y5	Z5	X6	Y6	Z6	X7	Y7	Z7	X8	Y8	Z8	X9	Y9	Z9	X10	Y10	Z10	X11	Y11	Z11	X12	Y12	Z12	X13	Y13	Z13	X14	Y14	Z14	X15	Y15	Z15	X16	Y16	Z16	X17	Y17	Z17	X18	Y18	Z18	X19	Y19	Z19	X20	Y20	Z20	X21	Y21	Z21	X22	Y22	Z22	X23	Y23	Z23	X24	Y24	Z24	X25	Y25	Z25	X26	Y26	Z26	X27	Y27	Z27	X28	Y28	Z28	X29	Y29	Z29	X30	Y30	Z30	X31	Y31	Z31	X32	Y32	Z32	X33	Y33	Z33	X34	Y34	Z34	X35	Y35	Z35	X36	Y36	Z36	X37	Y37	Z37	X38	Y38	Z38	X39	Y39	Z39	X40	Y40	Z40	X41	Y41	Z41	X42	Y42	Z42	X43	Y43	Z43	X44	Y44	Z44	X45	Y45	Z45	X46	Y46	Z46	X47	Y47	Z47	X48	Y48	Z48	X49	Y49	Z49	X50	Y50	Z50	X51	Y51	Z51	X52	Y52	Z52	

112	1.11	1146.009887695313	983.0438232421877	-339.9761657714844	935.6274414062502	999.0757446289065	-270.0217590332032	934.8493652343752	997.8242187500002	-166.9693908691407	1136.570190429688	975.5524902343752	-86.09922027587892	1078.56103515625	887.443054199219	-415.0240173339845	1194.8056640625	493.9140930175782	-367.5883483886719	1199.405151367188	485.5138244628907	-228.0175476074219	1196.598510742188	433.6386718750001	-370.5687561035157	1270.93212890625	445.214080810547	-322.8098754882813	1320.711303710938	76.53822326660158	-356.0759887695313	1341.153442382813	116.1014862060547	-262.0429077148438	1293.509887695313	14.38582515716553	-293.0013122558594	1484.7900390625	81.4967498779297	-276.6082153320313	1478.292724609375	98.55922698974612	-331.2780456542969	1440.306274414063	59.98612213134767	-381.9626770019532	1051.570678710938	874.7152099609377	-31.78432273864747	937.0779418945315	483.6876525878907	-115.4123764038086	972.038024902344	483.5418701171876	-242.7530212402344	902.0991821289065	436.4485168457032	-112.6324234008789	968.480407714844	410.1446838378907	-155.9307556152344	778.696472167969	80.2721633911133	-136.2277984619141	824.4541015625002	100.121940612793	-229.2387847900391	740.8522338867189	44.87356185913087	-202.2842559814454	943.6724243164065	20.52206420898438	-207.1303405761719	944.0837402343752	38.43297576904298	-147.353256225586	891.9282836914065	20.65951347351075	-93.68192291259767	1008.133850097656	1522.70849609375	-210.7244415283204	904.882263183594	1282.901123046875	-208.027816772461	1173.173706054688	1237.734130859375	-217.5875701904297	1130.225830078125	1423.281127929688	-211.6761016845704	878.9503173828127	1314.638427734375	-311.6976928710938	931.3795166015627	1453.165161132813	-319.5813598632813	968.7410278320315	1449.5302734375	-386.5457153320314	1015.101684570313	1441.14013671875	-415.4291992187501	948.050964355469	1106.49853515625	-495.6713256835939	923.4451904296877	1103.298828125	-405.5144348144532	911.021423339844	1095.100219726563	-461.0949096679689	987.524597167969	837.8468017578127	-459.7695312500001	912.9554443359377	854.374450683594	-506.5962219238282	993.6080322265627	749.2985839843751	-476.645233154297	888.7178344726565	773.947448730469	-508.5507812500001	898.360534667969	1310.046264648438	-83.21371459960939	958.5120849609377	1447.164916992188	-73.67611694335939	1007.760192871094	1431.90625	-5.354509353637696	1055.423095703125	1425.21630859375	4.236610889434815	1096.431274414063	1089.456665039063	96.58442687988284	1063.342163085938	1064.8994140625	3.096620559692384	1056.336303710938	1058.849609375	71.87046813964845	1253.268920898438	873.4095458984377	31.40241813659669	1196.90283203125	858.6843872070315	101.5649032592774	1315.802001953125	802.2589111328127	52.0416831970215	1221.714477539063	763.1803588867189	98.13952636718753	
113	1.12	1157.825805664063	981.3009033203127	-341.1557006835938	947.313171386719	997.5111083984377	-271.3940124511719	946.541931152344	996.4235839843752	-168.449935913086	1148.3828125	974.4822387695315	-87.03231811523439	1090.12353515625	885.5727539062502	-416.0164184570314	1204.684814453125	492.0151672363282	-366.6826477050782	1207.979736328125	483.6385803222657	-226.7609558105469	1207.535766601563	432.2105407714845	-370.0376281738282	1281.206665039063	444.6472778320314	-320.9300537109376	1336.767700195313	76.99460601806642	-356.8230285644532	1355.74951171875	116.2084732055664	-262.3088378906251	1309.689208984375	14.33973598480225	-294.4105224609376	1500.26220703125	83.85095977783205	-275.0697326660157	1494.42822265625	100.6209182739258	-329.9397277832032	1457.544799804688	61.51014709472658	-381.0454406738282	1062.490112304688	873.9205322265627	-32.66560745239259	945.111267089844	483.6457519531251	-115.5101699829102	980.7058715820315	482.8885498046876	-242.7655792236329	909.3204345703127	436.8580932617189	-112.7629852294922	975.3867187500002	409.6784667968751	-155.6063995361328	779.6406860351565	82.78579711914064	-135.8656921386719	826.006286621094	101.971176147461	-228.6034393310547	741.2704467773439	48.22906875610353	-202.0843811035157	943.7801513671877	20.65057563781739	-207.0973358154297	944.2178955078127	38.66861724853516	-147.2356109619141	891.9570922851565	20.72224807739258	-93.78326416015626	1019.157287597656	1521.236938476563	-212.3711700439454	915.600280761719	1281.603759765625	-209.7286376953126	1184.322509765625	1236.233154296875	-219.0704803466797	1141.359985351563	1421.873901367188	-213.3095245361329	890.075378417969	1313.043090820313	-313.1140441894532	942.4529418945315	1451.585327148438	-321.1210937500001	979.7662353515627	1447.916870117188	-388.110076904297	1026.086669921875	1439.49951171875	-417.0021057128907	958.5740966796877	1104.870361328125	-496.8284301757814	934.3090820312502	1101.735473632813	-406.5581359863282	921.681579589844	1093.572509765625	-462.0711975097657	997.196716308594	836.1317138671877	-460.9729309082032	922.5694580078127	852.9219360351565	-507.6244506835939	1002.539672851563	747.2735595703126	-477.4932250976564	897.8756103515627	772.6126098632815	-509.3393859863282	909.5974121093752	1308.50244140625	-84.80245971679689	969.6909790039065	1445.735229492188	-75.19322204589845	1018.995971679688	1430.5224609375	-7.099936962127687	1066.713012695313	1423.835205078125	2.647798299789429	1108.052368164063	1088.36572265625	95.49050140380861	1074.876342773438	1063.533081054688	2.099391460418702	1067.949584960938	1057.62841796875	70.87570190429689	1265.143676757813	872.4826660156252	30.6346836090088	1208.838989257813	857.781677246094	100.8646011352539	1327.901977539063	801.6148681640627	51.52575683593751	1234.005615234375	762.3195190429689	97.67581176757815	
114	1.13	1169.860473632813	979.7602539062502	-342.4100646972657	959.1999511718752	996.1338500976565	-272.7934875488282	958.4739379882815	995.1510009765627	-169.9511871337891	1160.379150390625	973.4678955078127	-88.03334808349611	1102.026733398438	884.036071777344	-417.0930175781251	1214.9501953125	490.3894348144532	-366.2059020996094	1217.1806640625	482.0908508300782	-226.0378112792969	1218.392822265625	430.895233154297	-369.8159179687501	1291.537963867188	443.8694763183595	-319.5962829589844	1350.241088867188	76.99842071533205	-357.2194519042969	1368.282348632813	115.8071060180664	-262.3496704101563	1322.89599609375	14.42024040222168	-295.2773742675782	1513.19921875	84.60843658447267	-273.5440063476563	1508.018798828125	100.9996032714844	-328.6428222656251	1471.784790039063	61.59336090087892	-379.9433898925782	1073.638916015625	873.199645996094	-33.6217269897461	953.584411621094	483.6461486816407	-115.4473571777344	989.6965942382815	482.2312011718751	-242.6542053222657	916.959655761719	437.3336181640626	-112.709701538086	982.656677246094	409.2385253906251	-155.147705078125	780.7510375976565	85.54754638671876	-135.2151184082032	827.623962402344	104.0358810424805	-227.7088317871094	741.7478027343751	51.95127487182619	-201.4925231933594	943.8901367187502	20.73579788208008	-207.0717010498047	944.4146118164065	38.87152862548829	-147.1175689697266	892.0758056640627	20.67609596252442	-93.83670806884767	1030.185424804688	1519.869506835938	-214.1152801513672	926.3172607421877	1280.392211914063	-211.5269927978516	1195.677856445313	1234.977783203125	-220.6693878173829	1152.525390625	1420.607543945313	-215.0146789550782	901.298034667969	1311.449096679688	-314.6148986816407	953.5540161132815	1450.051635742188	-322.7658996582032	990.829772949219	1446.348876953125	-389.7682189941407	1037.130737304688	1437.936279296875	-418.6700134277345	969.4090576171877	1103.270141601563	-498.1255798339845	945.3963623046877	1100.186279296875	-407.782684326172	932.6378173828127	1092.05126953125	-463.2318115234376	1007.337097167969	834.4769287109377	-462.3021545410157	932.6641845703127	851.476013183594	-508.8143310546876	1012.003112792969	745.3239135742189	-478.4779357910157	907.5262451171877	771.274841308594	-510.2965698242189	920.8511962890627	1306.9970703125	-86.53285217285158	980.8255004882815	1444.3896484375	-76.83699035644533	1030.103393554688	1429.246337890625	-8.928237915039064	1077.943115234375	1422.536499023438	0.9514144062995913	1119.529541015625	1087.340698242188	94.22325134277345	1086.366455078125	1062.27392578125	0.8820592164993288	1079.433715820313	1056.50634765625	69.66198730468751	1276.726806640625	871.4689941406252	29.80828285217286	1220.396484375	856.8582153320315	100.0601959228516	1339.594848632813	800.7778930664065	50.9814910888672	1245.775756835938	761.4102783203126	97.13612365722659	
115	1.14	1182.112548828125	978.483825683594	-343.7421569824219	971.2880859375002	994.9802246093752	-274.2195129394532	970.647888183594	994.026794433594	-171.4689178466797	1172.554321289063	972.5244140625002	-89.12219238281251	1114.277221679688	882.889587402344	-418.265594482422	1225.576782226563	489.059539794922	-366.1889953613282	1227.03271484375	480.8886108398439	-225.8832550048829	1229.165893554688	429.690887451172	-369.9380798339844	1301.940185546875	442.902313232422	-318.8991394042969	1361.353881835938	76.49279022216798	-357.3335266113282	1378.94580078125	114.886459350586	-262.2274780273438	1333.3310546875	14.57895183563233	-295.6646118164063	1523.816040039063	83.72475433349611	-272.0820312500001	1519.292602539063	99.64954376220706	-327.4338989257813	1483.243408203125	60.18661117553712	-378.7345886230469	1085.055053710938	872.5560302734377	-34.66498565673829	962.5513916015627	483.6825256347657	-115.2062454223633	999.0640258789065	481.5616149902345	-242.401840209961	925.0594482421877	437.8773498535157	-112.4580841064453	990.3411254882815	408.8099670410157	-154.5409240722657	782.0703735351565	88.5686721801758	-134.283447265625	829.3608398437502	106.3189239501953	-226.5558013916016	742.3482666015626	56.06510162353517	-200.5181579589844	943.9919433593752	20.7448959350586	-207.063949584961	944.667907714844	39.01039123535157	-147.0097045898438	892.2752685546877	20.50938415527344	-93.85073089599611	1041.216064453125	1518.632690429688	-215.9517669677735	937.069519042969	1279.279052734375	-213.3933105468751	1207.232543945313	1233.98828125	-222.3720397949219	1163.721435546875	1419.512939453125	-216.7903137207032	912.617370605469	1309.87841796875	-316.1830749511719	964.6773071289065	1448.585693359375	-324.5040893554688	1001.923645019531	1444.85205078125	-391.5125732421876	1048.223510742188	1436.473022460938	-420.4269104003907	980.5577392578127	1101.71728515625	-499.5543212890626	956.709655761719	1098.667846679688	-409.1784667968751	943.8938598632815	1090.554077148438	-464.5678100585939	1017.950988769531	832.8989868164065	-463.7501220703126	943.2486572265627	850.055114746094	-510.1647338867189	1022.034606933594	743.4853515625001	-479.6155090332032	917.687683105469	769.952819824219	-511.4392395019532	932.1289672851565	1305.558227539063	-88.39093017578126	991.9216918945315	1443.157836914063	-78.59960937500001	1041.094848632813	1428.107421875	-10.81895351409912	1089.120849609375	1421.3525390625	-0.8485730886459353	1130.85302734375	1086.40771484375	92.78466033935548	1097.804443359375	1061.151000976563	-0.5562953352928163	1090.777709960938	1055.510986328125	68.22761535644533	1288.00830078125	870.3934326171877	28.92458724975587	1231.57177734375	855.9314575195315	99.15428161621097	1350.870727539063	799.7754516601565	50.41400527954103	1257.006225585938	760.4741821289064	96.51069641113284	
